<svg version="1.1" id="Layer_1" xmlns="http://www.w3.org/2000/svg" xmlns:xlink="http://www.w3.org/1999/xlink" x="0px" y="0px"
	 width="100%" viewBox="0 0 768 656" enable-background="new 0 0 768 656" xml:space="preserve">
<path fill="#000000" opacity="1.000000" stroke="none" 
	d="
M352.805420,344.743774 
	C338.432068,371.819885 324.296112,398.601990 310.014099,425.306030 
	C305.401733,433.930115 305.472748,441.918457 311.511261,449.913849 
	C324.604248,467.249878 330.413300,487.024323 328.126221,508.478790 
	C325.326141,534.745483 312.504883,555.518250 290.145782,569.934753 
	C261.170685,588.616882 220.532608,586.679382 193.939346,564.728394 
	C176.094193,549.998413 165.585510,531.210876 163.604263,507.853516 
	C161.052872,477.774384 172.282730,453.638428 195.191727,434.739807 
	C203.862167,427.587189 214.079605,423.058624 225.057358,420.238190 
	C241.153885,416.102631 244.438614,412.258087 246.607910,395.910248 
	C248.354507,382.747955 249.394012,369.561279 249.861588,356.256927 
	C250.497864,338.152222 256.520447,321.419067 266.541779,306.278015 
	C278.107635,288.803375 289.799255,271.411194 301.537476,254.051697 
	C310.103638,241.383301 318.931488,228.891556 327.470734,216.205307 
	C346.487793,187.952728 365.369568,159.609146 384.359528,131.338272 
	C398.275940,110.620575 414.407684,91.927177 435.599335,78.330681 
	C451.256866,68.284821 467.336182,58.893303 483.286255,49.307888 
	C488.981567,45.885197 493.804626,46.080681 497.580627,49.477795 
	C501.001831,52.555729 502.072266,57.826908 499.486633,63.303291 
	C494.939789,72.933662 490.059692,82.413757 485.093109,91.837639 
	C466.239777,127.611000 447.149719,163.260284 428.421600,199.098816 
	C403.144287,247.469986 378.119354,295.973053 352.805420,344.743774 
M229.046844,452.162628 
	C206.812119,459.451111 190.957199,484.135162 195.350098,507.892303 
	C197.439758,519.193237 202.094788,529.357971 210.463394,537.069031 
	C222.485870,548.146912 236.785065,553.599304 253.454803,550.643250 
	C280.190918,545.902100 301.001434,522.671936 296.277679,492.418793 
	C291.476898,461.672150 260.556946,441.526031 229.046844,452.162628 
M279.578156,334.139069 
	C271.325592,349.065399 275.355865,361.871063 290.780945,369.524139 
	C299.227478,373.714813 307.567627,372.733856 314.542419,366.919159 
	C321.821594,360.850677 326.287048,352.912323 324.102417,342.776245 
	C321.929230,332.693207 315.595612,326.109497 305.781677,323.818512 
	C295.378174,321.389923 286.425293,324.573761 279.578156,334.139069 
z"/>
<path fill="#000000" opacity="1.000000" stroke="none" 
	d="
M581.733704,431.756958 
	C590.205322,435.419312 598.322327,438.872131 606.333618,442.554901 
	C609.289429,443.913757 610.745789,443.360626 612.000916,440.299286 
	C615.409851,431.984772 619.017395,423.747253 622.732239,415.563690 
	C627.313477,405.471771 635.436584,402.455353 645.640930,406.883850 
	C652.929016,410.046783 660.197083,413.255646 668.660461,416.963806 
	C664.665161,406.521332 661.174072,397.252808 657.579346,388.024628 
	C632.836121,324.505066 608.079956,260.990570 583.308777,197.481918 
	C574.243408,174.240143 565.121887,151.020279 556.035156,127.786880 
	C553.634583,121.649147 553.405884,121.578682 547.407288,123.929329 
	C527.440735,131.753479 507.464661,139.553680 487.470703,147.307434 
	C485.216980,148.181442 483.006989,149.441513 480.378174,149.277695 
	C479.752319,147.055069 481.132874,145.608597 481.928101,144.090210 
	C487.406342,133.630188 493.005280,123.233398 498.494720,112.779144 
	C499.557129,110.755798 500.942261,109.423218 503.141022,108.597542 
	C515.752136,103.861786 528.305359,98.971970 540.897705,94.185707 
	C547.005493,91.864166 553.372437,91.991608 559.567566,93.299835 
	C571.087891,95.732574 578.752502,103.143631 582.941345,113.845345 
	C603.492310,166.349762 623.836853,218.934982 644.304138,271.472260 
	C662.237183,317.504425 680.257324,363.502686 698.181335,409.538361 
	C700.585144,415.712280 703.435059,421.893402 702.048889,428.820770 
	C698.612244,445.996216 683.257202,454.553802 666.427856,448.511719 
	C660.644226,446.435272 655.046265,443.815826 649.448059,441.259216 
	C646.390869,439.863007 644.604309,440.317932 643.299561,443.643402 
	C641.173767,449.061920 638.822693,454.405701 636.296631,459.651001 
	C629.167480,474.454742 615.496399,479.399933 600.454590,472.762756 
	C594.389832,470.086639 588.323120,467.414825 582.076111,464.661163 
	C578.281372,470.461487 576.142761,476.600647 573.497986,482.461060 
	C566.086487,498.883728 553.682922,504.111176 536.895386,497.516571 
	C531.941101,495.570343 527.035217,493.479919 522.208618,491.237061 
	C518.860657,489.681305 516.980286,490.609863 515.611572,493.910461 
	C513.253906,499.595825 510.947693,505.331116 508.124054,510.788940 
	C501.482208,523.627136 489.296783,528.356506 475.776123,523.368469 
	C469.698181,521.126221 463.788177,518.406555 457.886414,515.718079 
	C454.922241,514.367798 453.464355,515.085205 452.228882,518.093323 
	C449.827515,523.940369 447.258179,529.743347 444.345337,535.349976 
	C439.007233,545.624573 430.344910,551.118530 418.770447,550.167603 
	C407.663239,549.255066 400.434326,542.720764 396.366302,532.246887 
	C380.410706,491.166534 364.312256,450.141388 348.131378,409.149170 
	C346.509735,405.040955 346.690247,401.763275 348.996246,397.905365 
	C353.516388,390.343262 357.440674,382.425232 361.621216,374.659698 
	C362.458679,373.104034 362.957794,371.280121 365.447205,369.906219 
	C383.905365,417.266876 402.254395,464.347626 420.893921,512.173706 
	C424.043030,508.477814 424.957214,504.887329 426.510651,501.671021 
	C428.391113,497.777710 429.849457,493.682343 431.674713,489.760132 
	C436.080872,480.291901 444.439484,477.072174 453.995636,481.187408 
	C463.296326,485.192566 472.539520,489.331238 481.972748,493.483856 
	C485.535065,489.439819 486.779205,484.525848 488.851105,480.069275 
	C491.025665,475.391998 492.896545,470.574249 495.033844,465.878754 
	C499.296509,456.514069 508.793457,452.794952 518.393677,456.827362 
	C526.524231,460.242462 534.617310,463.758881 542.615540,467.470581 
	C545.618103,468.863953 547.105408,468.238251 548.350037,465.273346 
	C551.699280,457.295074 555.097839,449.330750 558.749573,441.487915 
	C563.289734,431.736877 571.022400,428.482910 581.733704,431.756958 
z"/>
<path fill="#000000" opacity="1.000000" stroke="none" 
	d="
M238.113953,321.997986 
	C235.064529,329.936890 233.677551,337.934082 231.763321,346.112091 
	C227.959961,344.855865 225.539932,342.176270 223.076492,339.932190 
	C214.322144,331.957458 205.257065,331.551422 195.235931,337.356781 
	C185.658035,342.905396 175.292053,346.069336 164.236481,347.569214 
	C146.939682,349.915833 130.715927,346.631500 115.613274,338.601501 
	C89.634789,324.788849 74.958252,302.588898 71.922028,273.572662 
	C69.645416,251.815765 75.640518,231.836502 89.472038,214.405396 
	C102.940933,197.431259 120.497406,187.376572 141.612366,184.108963 
	C165.545609,180.405182 187.377792,186.157333 206.419479,201.447601 
	C222.964188,214.732819 232.560196,232.112045 236.032837,252.886276 
	C237.012497,258.746857 237.057175,264.673187 241.088669,269.682861 
	C244.503021,273.925659 248.861496,276.216766 253.881607,277.813751 
	C261.853485,280.349640 261.857544,280.595551 257.057953,287.701294 
	C251.099152,296.523254 245.013748,305.273499 240.977875,315.222198 
	C240.105118,317.373627 239.161865,319.496429 238.113953,321.997986 
M176.821320,219.762085 
	C167.419495,215.505997 157.884201,213.583237 147.336502,215.155731 
	C117.677551,219.577332 97.905762,247.440491 104.626106,276.662720 
	C110.020500,300.119293 128.370331,315.044189 150.610474,316.543488 
	C182.937408,318.722778 209.870987,290.152008 204.705017,258.310211 
	C201.904602,241.048965 193.115479,228.166687 176.821320,219.762085 
z"/>
<path fill="#000000" opacity="1.000000" stroke="none" 
	d="
M557.457275,389.673523 
	C557.278381,400.526184 551.448669,407.747559 543.883728,413.969574 
	C542.859802,414.811707 541.772095,415.631592 540.593262,416.220001 
	C536.897034,418.064941 535.934509,420.566925 538.278992,424.172913 
	C538.796143,424.968353 538.916016,426.022095 539.287720,427.169525 
	C535.889038,429.893372 531.864746,430.962219 527.998047,432.219849 
	C525.241211,433.116516 524.646729,430.538147 524.070374,428.751099 
	C523.047058,425.578308 521.632629,424.726440 517.924622,425.035675 
	C509.186066,425.764404 500.309784,426.089691 491.913239,422.336304 
	C482.506287,418.131256 477.440979,410.660736 474.785370,400.457245 
	C481.799561,397.694214 488.574097,395.037018 495.338776,392.354950 
	C497.890076,391.343445 498.508545,393.440002 499.418976,394.912109 
	C505.842621,405.299194 513.670959,407.416138 524.276917,401.584229 
	C530.679993,398.063385 533.501587,393.071899 532.189819,387.586578 
	C530.165283,379.120911 525.294861,374.990295 517.620911,374.282745 
	C506.233734,373.232758 494.740021,373.375427 483.444305,371.361664 
	C470.357910,369.028595 461.941467,361.126740 458.190704,348.656616 
	C454.470612,336.288544 456.857849,324.982330 466.105194,315.527802 
	C467.733032,313.863525 469.269409,311.979492 471.207184,310.774689 
	C475.782715,307.929932 478.437012,304.743866 475.245422,299.223236 
	C474.032074,297.124359 475.314056,295.801331 477.257019,294.989014 
	C478.791992,294.347290 480.369537,293.790009 481.852325,293.044373 
	C485.909821,291.003998 488.934082,291.528137 489.975128,296.417206 
	C490.783081,300.211609 493.210754,300.859131 496.603668,300.710754 
	C501.724640,300.486908 506.845490,300.080322 511.943848,301.525208 
	C522.307678,304.462311 529.053223,311.333862 533.659485,320.711975 
	C535.154968,323.756714 535.011292,325.865662 531.197632,327.137878 
	C525.847473,328.922668 520.604736,331.070923 515.433716,333.332825 
	C513.054688,334.373535 511.723206,333.779419 510.541962,331.731842 
	C509.628143,330.147766 508.723236,328.515411 507.543671,327.136047 
	C504.269287,323.307007 500.354553,320.453308 494.994568,321.842834 
	C488.664185,323.483856 482.895569,326.075745 481.700867,333.604645 
	C480.320160,342.305908 487.840424,350.142120 497.749176,350.685822 
	C507.853149,351.240265 517.977295,351.727936 528.032288,352.807129 
	C544.553162,354.580261 556.604248,367.959473 557.360718,384.776337 
	C557.427856,386.269318 557.453247,387.764191 557.457275,389.673523 
z"/>
<path fill="#000000" opacity="1.000000" stroke="none" 
	d="
M531.583435,219.471161 
	C537.660828,217.126740 543.368835,214.901367 549.654175,212.450928 
	C552.353516,219.500015 554.988770,226.263885 557.525574,233.064499 
	C558.540222,235.784500 556.175293,235.994583 554.564575,236.625046 
	C535.828003,243.958847 517.081482,251.267624 498.342010,258.594208 
	C488.269592,262.532196 478.203491,266.486481 468.138336,270.443024 
	C458.245636,274.331757 448.357727,278.232697 438.186279,282.239136 
	C435.315704,280.126434 435.134216,276.354675 433.635834,273.334747 
	C432.237427,270.516235 431.489502,267.362030 429.986938,264.611389 
	C428.036713,261.041290 428.984222,259.290558 432.641083,257.878204 
	C461.023834,246.916183 489.358490,235.829620 517.710693,224.788437 
	C522.205017,223.038208 526.712646,221.322083 531.583435,219.471161 
z"/>
<path fill="#000000" opacity="1.000000" stroke="none" 
	d="
M301.379089,216.358215 
	C295.657288,224.879211 290.111572,233.086182 283.890808,242.292191 
	C278.405304,231.250504 274.504456,221.270279 278.391022,209.761765 
	C281.914703,199.327713 288.597931,192.148911 299.009766,188.345978 
	C306.957703,185.442978 314.800781,182.252716 322.684113,179.173767 
	C323.459656,178.870865 324.189056,178.434784 325.770203,179.656494 
	C318.407776,192.162842 309.792755,203.983917 301.379089,216.358215 
z"/>
<path fill="#000000" opacity="1.000000" stroke="none" 
	d="
M529.468140,161.790237 
	C532.129700,167.852386 534.434570,173.715240 536.870178,179.523300 
	C538.091675,182.436188 537.393799,184.008148 534.335449,185.175980 
	C521.298401,190.154282 508.330719,195.315140 495.360321,200.466354 
	C493.130035,201.352112 491.624054,201.239838 490.651581,198.689392 
	C488.581085,193.259140 486.356964,187.886826 484.148315,182.510254 
	C483.249786,180.323029 483.426575,178.593216 485.867737,177.646896 
	C499.818146,172.238998 513.769958,166.834641 527.734131,161.462555 
	C528.137939,161.307220 528.685242,161.524658 529.468140,161.790237 
z"/>
</svg>