<svg version="1.1" id="Layer_1" xmlns="http://www.w3.org/2000/svg" xmlns:xlink="http://www.w3.org/1999/xlink" x="0px" y="0px"
	 width="100%" viewBox="0 0 207 221" enable-background="new 0 0 207 221" xml:space="preserve">
<path fill="#FFFEFE" opacity="1.000000" stroke="none" 
	d="
M144.000000,222.000000 
	C96.000000,222.000000 48.500004,222.000000 1.000006,222.000000 
	C1.000004,148.333344 1.000004,74.666679 1.000002,1.000016 
	C69.999992,1.000011 138.999985,1.000011 207.999969,1.000005 
	C207.999985,74.666649 207.999985,148.333298 208.000000,221.999969 
	C186.833328,222.000000 165.666672,222.000000 144.000000,222.000000 
M109.324852,20.823198 
	C108.556610,21.128496 107.752434,21.365664 107.025383,21.749071 
	C89.835472,30.814093 82.252388,45.610519 81.742653,64.503288 
	C81.453918,75.204887 80.713356,85.817032 76.037933,95.658707 
	C74.482399,98.933090 72.242851,101.882530 69.661324,106.033119 
	C67.648979,88.763275 60.061817,75.946770 52.873806,75.591141 
	C53.224819,78.247337 54.300224,81.116074 53.816544,83.692062 
	C52.231274,92.134872 50.644157,100.652283 48.029518,108.811523 
	C42.279671,126.754494 40.415791,144.787491 43.929165,163.413254 
	C47.994732,184.966446 70.261642,205.791946 91.093719,207.280624 
	C91.199081,207.303635 91.304443,207.326630 91.409798,207.349640 
	C91.257607,207.248779 91.105408,207.147934 91.140221,206.362686 
	C77.246880,191.301407 71.664284,168.794418 78.970406,158.420197 
	C81.743134,162.397552 84.585815,166.475266 87.666168,170.893890 
	C89.167061,159.503204 89.643127,149.182281 92.066582,139.340927 
	C94.607368,129.023117 101.235764,120.956902 111.288010,114.576546 
	C109.107254,128.389557 113.267616,139.015167 121.897415,148.128998 
	C122.924805,149.214005 123.818512,150.429672 124.734528,151.615433 
	C136.668320,167.063416 135.953537,189.960175 123.098312,204.669266 
	C122.324997,205.554092 121.641808,206.517670 120.666321,207.764618 
	C149.075027,203.124771 171.663269,178.612976 175.207397,148.513626 
	C178.063309,124.259125 172.782562,102.109169 157.331726,82.940201 
	C157.465164,96.409119 158.509888,109.742020 149.474915,122.571022 
	C149.225372,120.574905 149.088928,119.829865 149.044861,119.079399 
	C148.262466,105.758949 144.093170,93.678978 135.854111,83.097511 
	C131.762894,77.843140 127.583618,72.656738 123.531197,67.372841 
	C113.022530,53.670746 104.971344,39.228214 110.315636,20.935978 
	C110.226593,20.973822 110.137550,21.011665 109.324852,20.823198 
z"/>
<path fill="#FC4D04" opacity="1.000000" stroke="none" 
	d="
M109.974754,20.983234 
	C104.971344,39.228214 113.022530,53.670746 123.531197,67.372841 
	C127.583618,72.656738 131.762894,77.843140 135.854111,83.097511 
	C144.093170,93.678978 148.262466,105.758949 149.044861,119.079399 
	C149.088928,119.829865 149.225372,120.574905 149.474915,122.571022 
	C158.509888,109.742020 157.465164,96.409119 157.331726,82.940201 
	C172.782562,102.109169 178.063309,124.259125 175.207397,148.513626 
	C171.663269,178.612976 149.075027,203.124771 120.666321,207.764618 
	C121.641808,206.517670 122.324997,205.554092 123.098312,204.669266 
	C135.953537,189.960175 136.668320,167.063416 124.734528,151.615433 
	C123.818512,150.429672 122.924805,149.214005 121.897415,148.128998 
	C113.267616,139.015167 109.107254,128.389557 111.288010,114.576546 
	C101.235764,120.956902 94.607368,129.023117 92.066582,139.340927 
	C89.643127,149.182281 89.167061,159.503204 87.666168,170.893890 
	C84.585815,166.475266 81.743134,162.397552 78.970406,158.420197 
	C71.664284,168.794418 77.246880,191.301407 91.061584,206.688721 
	C90.982941,207.014740 91.009193,206.980377 91.009193,206.980377 
	C70.261642,205.791946 47.994732,184.966446 43.929165,163.413254 
	C40.415791,144.787491 42.279671,126.754494 48.029518,108.811523 
	C50.644157,100.652283 52.231274,92.134872 53.816544,83.692062 
	C54.300224,81.116074 53.224819,78.247337 52.873806,75.591141 
	C60.061817,75.946770 67.648979,88.763275 69.661324,106.033119 
	C72.242851,101.882530 74.482399,98.933090 76.037933,95.658707 
	C80.713356,85.817032 81.453918,75.204887 81.742653,64.503288 
	C82.252388,45.610519 89.835472,30.814093 107.025383,21.749071 
	C107.752434,21.365664 108.556610,21.128496 109.668671,20.919294 
	C110.012489,21.015390 109.974754,20.983234 109.974754,20.983234 
z"/>
<path fill="#FC4D04" opacity="1.000000" stroke="none" 
	d="
M110.030502,21.032452 
	C110.137550,21.011665 110.226593,20.973822 110.145195,20.959606 
	C109.974754,20.983234 110.012489,21.015390 110.030502,21.032452 
z"/>
<path fill="#FC4D04" opacity="1.000000" stroke="none" 
	d="
M90.968079,207.030914 
	C91.105408,207.147934 91.257607,207.248779 91.409798,207.349640 
	C91.304443,207.326630 91.199081,207.303635 91.051453,207.130493 
	C91.009193,206.980377 90.982941,207.014740 90.968079,207.030914 
z"/>
</svg>