<svg version="1.1" id="Layer_1" xmlns="http://www.w3.org/2000/svg" xmlns:xlink="http://www.w3.org/1999/xlink" x="0px" y="0px"
 width="100%" viewBox="0 0 520 465" enable-background="new 0 0 520 465" xml:space="preserve">
<path fill="#FFFFFF" opacity="1.000000" stroke="none" 
 d="
M1.000000,168.000000 
 C1.000000,112.014069 1.000000,56.528137 1.000000,1.021104 
 C174.275330,1.021104 347.550659,1.021104 520.912964,1.021104 
 C520.912964,155.902649 520.912964,310.805389 520.912964,465.854065 
 C347.666748,465.854065 174.333389,465.854065 1.000000,465.854065 
 C1.000000,366.782562 1.000000,267.641296 1.000000,168.000000 
M243.317001,447.173676 
 C248.404587,452.091736 253.492157,457.009766 258.841339,462.180695 
 C267.699066,453.266907 276.198517,444.577209 284.844177,436.035461 
 C336.509918,384.990784 388.477997,334.248230 439.770691,282.831696 
 C461.531067,261.018738 481.431213,237.436737 497.191071,210.719086 
 C514.310974,181.695831 521.315613,150.616364 514.552856,117.282860 
 C502.036224,55.588387 444.974854,7.645931 381.946655,5.134497 
 C342.971832,3.581496 309.400574,16.037914 281.382324,43.235813 
 C273.545776,50.842896 265.819824,58.563892 257.345551,66.920570 
 C255.776337,65.013359 254.522552,62.963512 252.790222,61.467964 
 C239.827194,50.276676 227.626999,37.941254 213.571030,28.328308 
 C179.701248,5.164591 141.845474,1.667994 102.603027,10.148067 
 C46.755569,22.216387 7.537868,69.170044 5.160047,126.127045 
 C3.865316,157.140289 11.802197,186.068573 25.562439,213.568253 
 C43.735016,249.885925 69.382133,280.688324 97.915405,309.071838 
 C120.571388,331.608917 144.365936,352.998993 167.564224,374.994019 
 C192.703079,398.829010 217.736816,422.774841 243.317001,447.173676 
z"/>
<path fill="#020202" opacity="1.000000" stroke="none" 
 d="
M243.066696,446.923035 
 C217.736816,422.774841 192.703079,398.829010 167.564224,374.994019 
 C144.365936,352.998993 120.571388,331.608917 97.915405,309.071838 
 C69.382133,280.688324 43.735016,249.885925 25.562439,213.568253 
 C11.802197,186.068573 3.865316,157.140289 5.160047,126.127045 
 C7.537868,69.170044 46.755569,22.216387 102.603027,10.148067 
 C141.845474,1.667994 179.701248,5.164591 213.571030,28.328308 
 C227.626999,37.941254 239.827194,50.276676 252.790222,61.467964 
 C254.522552,62.963512 255.776337,65.013359 257.345551,66.920570 
 C265.819824,58.563892 273.545776,50.842896 281.382324,43.235813 
 C309.400574,16.037914 342.971832,3.581496 381.946655,5.134497 
 C444.974854,7.645931 502.036224,55.588387 514.552856,117.282860 
 C521.315613,150.616364 514.310974,181.695831 497.191071,210.719086 
 C481.431213,237.436737 461.531067,261.018738 439.770691,282.831696 
 C388.477997,334.248230 336.509918,384.990784 284.844177,436.035461 
 C276.198517,444.577209 267.699066,453.266907 258.841339,462.180695 
 C253.492157,457.009766 248.404587,452.091736 243.066696,446.923035 
M255.361206,103.211403 
 C244.005585,92.191116 232.645996,81.174896 221.295074,70.149765 
 C190.153442,39.901993 153.503769,28.012608 110.622841,37.000458 
 C64.086693,46.754440 32.933563,85.086578 33.030048,132.647934 
 C33.086876,160.659119 42.120781,186.143585 55.643478,210.251053 
 C72.402260,240.127686 94.245689,266.134308 118.576042,289.925110 
 C145.827454,316.572266 174.102097,342.170502 201.794128,368.370331 
 C220.779678,386.332794 239.530701,404.543152 258.416016,422.670990 
 C259.020447,422.177277 259.566284,421.800171 260.031738,421.341461 
 C311.635071,370.487671 363.439667,319.835541 414.728546,268.666504 
 C435.357819,248.085434 454.449615,226.033661 470.232025,201.360901 
 C481.371246,183.946869 488.635529,165.166443 488.940063,144.279358 
 C489.451935,109.175743 474.714355,80.884026 447.744965,59.471085 
 C413.708160,32.446819 375.633545,25.084093 334.415558,41.113388 
 C315.187531,48.590992 300.777740,62.903484 286.775177,77.482979 
 C277.578522,87.058533 268.477631,96.726067 259.154022,106.541733 
 C257.846893,105.423134 256.856323,104.575417 255.361206,103.211403 
z"/>
<path fill="#FFFFFF" opacity="1.000000" stroke="none" 
 d="
M255.613464,103.469543 
 C256.856323,104.575417 257.846893,105.423134 259.154022,106.541733 
 C268.477631,96.726067 277.578522,87.058533 286.775177,77.482979 
 C300.777740,62.903484 315.187531,48.590992 334.415558,41.113388 
 C375.633545,25.084093 413.708160,32.446819 447.744965,59.471085 
 C474.714355,80.884026 489.451935,109.175743 488.940063,144.279358 
 C488.635529,165.166443 481.371246,183.946869 470.232025,201.360901 
 C454.449615,226.033661 435.357819,248.085434 414.728546,268.666504 
 C363.439667,319.835541 311.635071,370.487671 260.031738,421.341461 
 C259.566284,421.800171 259.020447,422.177277 258.416016,422.670990 
 C239.530701,404.543152 220.779678,386.332794 201.794128,368.370331 
 C174.102097,342.170502 145.827454,316.572266 118.576042,289.925110 
 C94.245689,266.134308 72.402260,240.127686 55.643478,210.251053 
 C42.120781,186.143585 33.086876,160.659119 33.030048,132.647934 
 C32.933563,85.086578 64.086693,46.754440 110.622841,37.000458 
 C153.503769,28.012608 190.153442,39.901993 221.295074,70.149765 
 C232.645996,81.174896 244.005585,92.191116 255.613464,103.469543 
z"/>
</svg>
